Coordinates
version=1
nRows=16
nColumns=63
inDegrees=yes

Units are S.I. units (second, meters, Newtons, ...)
If the header above contains a line with 'inDegrees', this indicates whether rotational values are in degrees (yes) or radians (no).

endheader
time	pelvis_tilt	pelvis_list	pelvis_rotation	pelvis_tx	pelvis_ty	pelvis_tz	hip_flexion_r	hip_adduction_r	hip_rotation_r	knee_angle_r	knee_angle_r_beta	ankle_angle_r	subtalar_angle_r	mtp_angle_r	hip_flexion_l	hip_adduction_l	hip_rotation_l	knee_angle_l	knee_angle_l_beta	ankle_angle_l	subtalar_angle_l	mtp_angle_l	L5_S1_Flex_Ext	L5_S1_Lat_Bending	L5_S1_axial_rotation	L4_L5_Flex_Ext	L4_L5_Lat_Bending	L4_L5_axial_rotation	L3_L4_Flex_Ext	L3_L4_Lat_Bending	L3_L4_axial_rotation	L2_L3_Flex_Ext	L2_L3_Lat_Bending	L2_L3_axial_rotation	L1_L2_Flex_Ext	L1_L2_Lat_Bending	L1_L2_axial_rotation	L1_T12_Flex_Ext	L1_T12_Lat_Bending	L1_T12_axial_rotation	Abs_r3	Abs_r2	Abs_r1	Abs_t1	Abs_t2	neck_flexion	neck_bending	neck_rotation	arm_flex_r	arm_add_r	arm_rot_r	elbow_flex_r	pro_sup_r	wrist_flex_r	wrist_dev_r	arm_flex_l	arm_add_l	arm_rot_l	elbow_flex_l	pro_sup_l	wrist_flex_l	wrist_dev_l
0.000000	-1.716778	-2.564914	76.656495	0.370480	0.874130	0.628742	3.869534	-0.180488	23.096406	3.646663	0.063646	23.437892	-11.205842	0.000000	2.081530	-1.547984	-0.288830	2.672218	0.046639	28.090762	-12.217762	0.000000	-0.003659	-0.187427	2.419093	-0.006796	-0.249278	2.570287	-0.006012	-0.455711	2.570287	-0.004182	-0.455711	2.116707	-0.003398	-0.382202	1.965513	-0.002091	-0.290325	1.814320	-0.026138	-2.120216	13.454272	0.000000	0.000000	27.831391	-0.732693	3.597825	4.407542	-5.442266	40.710369	38.320323	65.277145	5.853837	5.963451	19.493240	-9.455623	90.946003	40.556639	21.343680	-3.528462	-17.763370
0.016949	-2.259123	-3.294337	75.425265	0.372203	0.872418	0.631125	5.694624	-0.331766	21.642548	4.756916	0.083024	25.478070	-7.149581	0.000000	3.097032	-1.426844	-2.965309	3.076338	0.053692	28.742564	-10.346142	0.000000	0.062909	-0.247396	2.919477	0.116829	-0.329037	3.101944	0.103354	-0.601520	3.101944	0.071899	-0.601520	2.554542	0.058418	-0.504491	2.372075	0.035946	-0.383217	2.189608	0.449355	-2.798598	16.237256	0.000000	0.000000	27.978972	-1.865642	2.244962	3.197085	-5.385715	38.111313	38.996568	66.355941	5.033071	5.222504	19.888183	-9.080019	91.914327	40.185334	21.332280	-2.899836	-17.229878
0.033898	-2.730385	-3.856938	74.438913	0.373561	0.871062	0.633081	7.175414	-0.505145	20.238961	5.697306	0.099437	27.216766	-3.600457	0.000000	3.904050	-1.294199	-5.153740	3.357515	0.058600	29.321473	-8.702677	0.000000	0.116747	-0.296577	3.297817	0.216811	-0.394447	3.503931	0.191804	-0.721097	3.503931	0.133430	-0.721097	2.885590	0.108411	-0.604780	2.679477	0.066709	-0.459398	2.473363	0.833912	-3.354937	18.341471	0.000000	0.000000	28.089811	-2.733928	1.296081	2.297042	-5.332891	36.143696	39.483825	67.026168	4.412207	4.718862	19.989394	-8.764961	92.084882	39.871947	21.512110	-2.332988	-16.555403
0.050847	-3.135599	-4.267558	73.675292	0.374586	0.870030	0.634647	8.340737	-0.696691	18.896065	6.480044	0.113098	28.675651	-0.531088	0.000000	4.520599	-1.151840	-6.892115	3.528567	0.061585	29.830002	-7.277625	0.000000	0.158816	-0.335898	3.566289	0.294938	-0.446745	3.789182	0.260919	-0.816704	3.789182	0.181511	-0.816704	3.120503	0.147477	-0.684964	2.897610	0.090748	-0.520307	2.674717	1.134409	-3.799751	19.834629	0.000000	0.000000	28.167544	-3.366550	0.700502	1.676642	-5.284469	34.747094	39.801338	67.333363	3.970971	4.425872	19.833121	-8.504625	91.556445	39.610630	21.863139	-1.825353	-15.761983
0.067797	-3.479805	-4.541036	73.112256	0.375311	0.869291	0.635862	9.219426	-0.902466	17.624280	7.117342	0.124221	29.876394	2.085905	0.000000	4.964694	-1.001561	-8.218433	3.602314	0.062872	30.270664	-6.061244	0.000000	0.190079	-0.366291	3.737066	0.352996	-0.487167	3.970633	0.312281	-0.890600	3.970633	0.217241	-0.890600	3.269933	0.176507	-0.746941	3.036366	0.108611	-0.567385	2.802800	1.357716	-4.143558	20.784442	0.000000	0.000000	28.215807	-3.792508	0.407543	1.305115	-5.241125	33.861081	39.968346	67.323064	3.689087	4.316877	19.455611	-8.293188	90.427789	39.395534	22.365334	-1.374370	-14.871655
0.084746	-3.768040	-4.692211	72.727661	0.375771	0.868815	0.636763	9.840315	-1.118535	16.434025	7.621409	0.133019	30.840667	4.277903	0.000000	5.254349	-0.845155	-9.170686	3.591574	0.062685	30.645973	-5.043792	0.000000	0.211498	-0.388684	3.822324	0.392772	-0.516950	4.061220	0.347470	-0.945047	4.061220	0.241721	-0.945047	3.344534	0.196397	-0.792605	3.105639	0.120850	-0.602072	2.866743	1.510707	-4.396876	21.258622	0.000000	0.000000	28.238237	-4.040801	0.366524	1.151689	-5.203533	33.425230	40.004091	67.040807	3.546280	4.365222	18.893112	-8.124825	88.797690	39.220813	22.998663	-0.977476	-13.906456
0.101695	-4.005343	-4.735924	72.499359	0.375998	0.868571	0.637390	10.232238	-1.340963	15.335722	8.004459	0.139704	31.590139	6.072288	0.000000	5.407578	-0.684414	-9.786872	3.509167	0.061247	30.958442	-4.215528	0.000000	0.224034	-0.404008	3.834238	0.416054	-0.537331	4.073877	0.368066	-0.982306	4.073877	0.256049	-0.982306	3.354958	0.208038	-0.823854	3.115318	0.128013	-0.625809	2.875678	1.600255	-4.570224	21.324879	0.000000	0.000000	28.238468	-4.140430	0.526763	1.185594	-5.172368	33.379117	39.927815	66.532130	3.522276	4.544252	18.181871	-7.993711	86.764921	39.080617	23.743091	-0.632107	-12.888424
0.118644	-4.196750	-4.687014	72.405205	0.376026	0.868529	0.637781	10.424027	-1.565814	14.339789	8.278701	0.144491	32.146483	7.496440	0.000000	5.442397	-0.521131	-10.104985	3.367910	0.058781	31.210585	-3.566711	0.000000	0.228651	-0.413193	3.784981	0.424628	-0.549546	4.021542	0.375651	-1.004637	4.021542	0.261325	-1.004637	3.311858	0.212326	-0.842583	3.075297	0.130651	-0.640036	2.838735	1.633233	-4.674120	21.050927	0.000000	0.000000	28.220136	-4.120395	0.837580	1.376059	-5.148306	33.662314	39.758758	65.842570	3.596799	4.827313	17.358135	-7.894025	84.428259	38.969098	24.578588	-0.335702	-11.839595
0.135593	-4.347301	-4.560321	72.423053	0.375888	0.868658	0.637973	10.444517	-1.789150	13.456648	8.456348	0.147591	32.531367	8.577740	0.000000	5.376818	-0.357099	-10.163021	3.180624	0.055512	31.404914	-3.087598	0.000000	0.226310	-0.417167	3.686728	0.420281	-0.554833	3.917149	0.371805	-1.014301	3.917149	0.258650	-1.014301	3.225887	0.210152	-0.850688	2.995467	0.129314	-0.646192	2.765046	1.616513	-4.719082	20.504476	0.000000	0.000000	28.186878	-4.009694	1.248293	1.692313	-5.132020	34.214397	39.516162	65.017664	3.749574	5.187747	16.458153	-7.819940	81.886477	38.880409	25.485120	-0.085698	-10.782009
0.152542	-4.462033	-4.370684	72.530757	0.375617	0.868928	0.638006	10.322541	-2.007038	12.696718	8.549610	0.149219	32.766464	9.343569	0.000000	5.228858	-0.194110	-9.998975	2.960126	0.051664	31.543942	-2.768448	0.000000	0.217974	-0.416862	3.551655	0.404800	-0.554427	3.773633	0.358110	-1.013559	3.773633	0.249123	-1.013559	3.107698	0.202411	-0.850065	2.885719	0.124550	-0.645719	2.663741	1.556968	-4.715628	19.753238	0.000000	0.000000	28.142329	-3.837329	1.708220	2.103585	-5.124187	34.974940	39.219268	64.102951	3.960326	5.598901	15.518171	-7.765634	79.238350	38.808701	26.442656	0.120469	-9.737701
0.169492	-4.545985	-4.132943	72.706173	0.375247	0.869307	0.637917	10.086933	-2.215541	12.070419	8.570699	0.149587	32.873443	9.821307	0.000000	5.016530	-0.033958	-9.650842	2.719235	0.047460	31.630185	-2.599519	0.000000	0.204605	-0.413207	3.391935	0.379971	-0.549565	3.603931	0.336145	-1.004671	3.603931	0.233843	-1.004671	2.967943	0.189996	-0.842611	2.755947	0.116911	-0.640057	2.543951	1.461471	-4.674277	18.864925	0.000000	0.000000	28.090126	-3.632298	2.166682	2.579103	-5.125481	35.883516	38.887317	63.143966	4.208781	6.034120	14.574437	-7.725282	76.582654	38.748127	27.431161	0.285361	-8.728709
0.186441	-4.627952	-3.916409	72.878764	0.374885	0.869708	0.637801	9.865986	-2.410433	11.373161	8.592077	0.149960	32.960820	10.386296	0.000000	4.826026	0.115968	-9.328756	2.512395	0.043850	31.659524	-2.417512	0.000000	0.190907	-0.410309	3.245241	0.354533	-0.545710	3.448069	0.313641	-0.997624	3.448069	0.218188	-0.997624	2.839586	0.177276	-0.836701	2.636759	0.109084	-0.635568	2.433931	1.363629	-4.641492	18.049059	0.000000	0.000000	28.045580	-3.417381	2.608438	3.082322	-5.135641	36.904538	38.507574	62.272536	4.463033	6.365411	13.695363	-7.683373	74.089000	38.663114	28.384315	0.415520	-7.800279
0.203390	-4.690952	-3.664197	73.010430	0.374545	0.870150	0.637730	9.580918	-2.583560	11.113018	8.562009	0.149435	32.924969	10.466085	0.000000	4.578061	0.270991	-8.769175	2.288147	0.039936	31.605239	-2.600985	0.000000	0.171305	-0.406729	3.123618	0.318130	-0.540950	3.318845	0.281436	-0.988922	3.318845	0.195784	-0.988922	2.733166	0.159073	-0.829402	2.537940	0.097883	-0.630024	2.342714	1.223611	-4.601003	17.372629	0.000000	0.000000	28.002071	-3.312163	2.750946	3.526773	-5.167270	37.782635	38.191004	61.557325	4.675314	6.675922	13.009417	-7.626981	72.084435	38.570899	29.307155	0.516615	-7.016035
0.220339	-4.736800	-3.408380	73.116517	0.374234	0.870586	0.637704	9.266466	-2.725347	11.256475	8.482868	0.148054	32.771137	10.073194	0.000000	4.316266	0.422616	-8.005188	2.076929	0.036249	31.477834	-3.109216	0.000000	0.149687	-0.401987	3.022956	0.277984	-0.534643	3.211891	0.245921	-0.977391	3.211891	0.171077	-0.977391	2.645086	0.139000	-0.819732	2.456152	0.085531	-0.622678	2.267217	1.069201	-4.547356	16.812773	0.000000	0.000000	27.962340	-3.294070	2.692303	3.910099	-5.215043	38.555116	37.920457	60.986252	4.841938	6.906190	12.486672	-7.558140	70.544642	38.470488	30.161965	0.570516	-6.393380
0.237288	-4.789744	-3.150093	73.162904	0.373996	0.871005	0.637746	8.965510	-2.870951	11.327592	8.410308	0.146788	32.671244	9.894422	0.000000	4.046464	0.590573	-7.184421	1.890896	0.033002	31.281331	-3.840521	0.000000	0.125804	-0.400009	2.951281	0.233631	-0.532012	3.135736	0.206684	-0.972581	3.135736	0.143782	-0.972581	2.582371	0.116822	-0.815698	2.397916	0.071885	-0.619613	2.213461	0.898608	-4.524978	16.414139	0.000000	0.000000	27.928731	-3.368731	2.354273	4.257509	-5.291726	39.355437	37.694109	60.331668	4.912191	7.049575	12.129940	-7.478467	69.468468	38.364044	30.912969	0.602782	-5.832738
0.254237	-4.817703	-2.908893	73.242271	0.373758	0.871391	0.637794	8.649643	-2.974265	11.664406	8.284575	0.144593	32.509281	9.351876	0.000000	3.810690	0.728051	-6.536682	1.795050	0.031330	31.139022	-4.381369	0.000000	0.101290	-0.397333	2.891576	0.188105	-0.528453	3.072300	0.166409	-0.966076	3.072300	0.115764	-0.966076	2.530129	0.094058	-0.810242	2.349406	0.057877	-0.615469	2.168682	0.723503	-4.494713	16.082080	0.000000	0.000000	27.901458	-3.586304	1.729343	4.507550	-5.371620	39.990622	37.544191	59.841847	4.922739	7.098444	11.899222	-7.396266	68.768216	38.230314	31.818833	0.580003	-5.344270
